<svg width="70" height="56" viewBox="0 0 70 56" fill="none" xmlns="http://www.w3.org/2000/svg">
<path d="M46.5162 43.179C46.5162 49.041 39.7684 56.1732 34.2801 55.9973C28.7918 55.8214 22.2911 48.787 22.2911 42.8468C22.2911 37.4537 26.79 34.5813 34.9099 34.679C42.715 34.7963 46.5836 37.61 46.5162 43.179Z" fill="#8F21E6"/>
<path d="M50.2786 15.1087C48.0002 20.6265 38.8766 25.3605 33.779 23.5852C28.6813 21.8098 25.2965 13.2817 27.6052 7.69038C29.7014 2.61401 35.0524 1.2299 42.6576 3.70361C49.9588 6.10334 52.5066 9.88657 50.2786 15.1087Z" fill="#215EE6"/>
<path d="M13.1584 27.1754C13.1584 32.334 12.0113 33.8191 8.65984 34.0731C6.70813 34.3329 4.71713 33.9147 3.11757 32.9091C1.51801 31.9035 0.438376 30.3913 0.112365 28.6995C-0.101138 27.0952 -0.00996328 25.4713 0.382271 23.8926C1.16953 20.5513 2.49685 19.6133 5.96078 19.5742C7.46462 19.4269 8.97877 19.7601 10.2205 20.5116C11.4623 21.2631 12.3467 22.3816 12.7087 23.6581C12.9709 24.8177 13.1213 25.9941 13.1584 27.1754Z" fill="#8F21E6"/>
<path d="M56.2329 27.1754C56.2329 32.334 57.38 33.8191 60.7315 34.0731C62.6832 34.3329 64.6742 33.9147 66.2737 32.9091C67.8733 31.9035 68.9529 30.3913 69.2789 28.6995C69.4924 27.0952 69.4013 25.4713 69.009 23.8926C68.2218 20.5513 66.8945 19.6133 63.4305 19.5742C61.9267 19.4269 60.4125 19.7601 59.1708 20.5116C57.929 21.2631 57.0446 22.3816 56.6826 23.6581C56.4204 24.8177 56.27 25.9941 56.2329 27.1754Z" fill="#F5050E"/>
</svg>
