<svg width="70" height="56" fill="none" xmlns="http://www.w3.org/2000/svg"><path d="M46.516 43.179c0 5.862-6.748 12.994-12.236 12.818-5.488-.176-11.989-7.21-11.989-13.15 0-5.393 4.499-8.266 12.619-8.168 7.805.117 11.674 2.931 11.606 8.5Z" fill="#8F21E6"/><path d="M50.279 15.109C48 20.627 38.877 25.36 33.779 23.585c-5.098-1.775-8.483-10.303-6.174-15.895 2.096-5.076 7.447-6.46 15.053-3.986 7.3 2.4 9.849 6.183 7.62 11.405Z" fill="#215EE6"/><path d="M13.158 27.175c0 5.159-1.147 6.644-4.498 6.898-1.952.26-3.943-.158-5.542-1.164-1.6-1.005-2.68-2.518-3.006-4.21a12.859 12.859 0 0 1 .27-4.806c.788-3.342 2.115-4.28 5.579-4.319 1.504-.147 3.018.186 4.26.938 1.241.751 2.126 1.87 2.488 3.146.262 1.16.412 2.336.45 3.517Z" fill="#8F21E6"/><path d="M56.233 27.175c0 5.159 1.147 6.644 4.498 6.898 1.952.26 3.943-.158 5.543-1.164 1.6-1.005 2.679-2.518 3.005-4.21a12.858 12.858 0 0 0-.27-4.806c-.787-3.342-2.115-4.28-5.578-4.319-1.504-.147-3.018.186-4.26.938-1.242.751-2.126 1.87-2.488 3.146a18.585 18.585 0 0 0-.45 3.517Z" fill="#F5050E"/></svg>