<svg width="472" height="821" viewBox="0 0 472 821" fill="none" xmlns="http://www.w3.org/2000/svg">
<path opacity="0.5" d="M256.668 452.44L257.815 451.989L256.668 452.44ZM306.603 469.522L305.568 468.835L306.603 469.522ZM2.7937 214.68L4.01681 214.523L4.01817 214.533L2.7937 214.68ZM233.32 399.376L234.509 399.053L233.32 399.376ZM257.815 451.989C262.024 462.564 270.098 473.678 280.825 485.381C291.542 497.075 304.836 509.284 319.412 522.063C348.526 547.589 382.751 575.384 411.306 605.635C439.86 635.884 462.92 668.762 469.584 704.56C476.264 740.451 466.424 779.043 429.678 820.575L427.827 818.915C464.178 777.828 473.67 739.982 467.158 704.993C460.628 669.913 437.971 637.471 409.523 607.333C381.076 577.198 347.016 549.541 317.8 523.926C303.211 511.136 289.831 498.853 279.016 487.054C268.212 475.266 259.9 463.886 255.523 452.891L257.815 451.989ZM307.639 470.208C275.049 520.303 210.19 548.361 147.513 517.616C84.9219 486.911 25.0361 397.803 1.56923 214.826L4.01817 214.533C27.4525 397.257 87.1503 485.254 148.578 515.386C209.92 545.478 273.515 518.106 305.568 468.835L307.639 470.208ZM255.523 452.891C244.025 424.009 235.061 399.504 230.562 387.909C229.431 384.994 228.593 382.924 228.067 381.79C227.937 381.508 227.834 381.304 227.757 381.167C227.652 380.978 227.662 381.038 227.775 381.141C227.814 381.177 227.912 381.259 228.063 381.329C228.22 381.399 228.504 381.482 228.844 381.394C229.549 381.214 229.682 380.569 229.685 380.558C229.726 380.387 229.693 380.314 229.721 380.539C229.804 381.252 230.206 383.039 231.008 386.143C231.8 389.205 232.956 393.463 234.509 399.053L232.131 399.698C230.578 394.106 229.416 389.829 228.619 386.744C227.832 383.699 227.375 381.725 227.267 380.803C227.246 380.62 227.208 380.27 227.285 379.952C227.306 379.867 227.467 379.181 228.209 378.99C228.568 378.898 228.874 378.984 229.055 379.066C229.23 379.145 229.354 379.247 229.424 379.309C229.653 379.518 229.818 379.809 229.909 379.971C230.029 380.185 230.16 380.452 230.302 380.759C230.869 381.979 231.735 384.124 232.861 387.028C237.393 398.706 246.314 423.1 257.815 451.989L255.523 452.891ZM234.509 399.053C236.683 406.888 242.421 414.847 249.915 422.507C257.39 430.148 266.507 437.385 275.283 443.793C284.089 450.222 292.416 455.72 298.492 460.032C301.498 462.164 303.964 464.014 305.583 465.505C306.382 466.243 307.05 466.959 307.462 467.63C307.837 468.241 308.256 469.259 307.639 470.208L305.568 468.835C305.355 469.163 305.626 469.345 305.364 468.917C305.137 468.548 304.678 468.022 303.924 467.327C302.436 465.957 300.09 464.188 297.082 462.056C291.135 457.835 282.633 452.212 273.845 445.797C265.026 439.357 255.781 432.026 248.163 424.238C240.564 416.471 234.475 408.143 232.131 399.698L234.509 399.053ZM1.57059 214.837C-2.56081 184.653 0.439089 140.129 22.993 104.716C45.6189 69.1896 87.7825 43.0552 161.45 49.5254L161.26 51.9985C88.3678 45.5952 47.1444 71.4177 25.0764 106.068C2.9363 140.832 -0.0645877 184.705 4.01681 214.523L1.57059 214.837ZM161.45 49.5254C234.634 55.9534 280 48.826 306.963 37.4243C333.947 26.0126 342.276 10.4517 342.083 0.0212867L344.551 0C344.771 11.8507 335.398 28.1021 307.94 39.7143C280.457 51.3351 234.636 58.444 161.26 51.9985L161.45 49.5254Z" fill="#E8E7FA"/>
</svg>
