<svg width="489" height="602" fill="none" xmlns="http://www.w3.org/2000/svg"><path opacity=".5" d="m305.447 375.116 1.074.483-1.074-.483Zm24.809-29.679-.969.688.969-.688Zm17.64 80.492-1.123-.358 1.123.358Zm-41.375-50.33c4.73-10.452 13.149-21.691 24.049-33.696 10.891-11.995 24.198-24.688 38.648-38.057 28.869-26.71 62.291-56.103 89.752-87.775 27.455-31.665 49.095-65.762 54.262-101.949 5.179-36.273-6.221-74.426-44.378-114.081l-1.706 1.66c37.757 39.241 48.802 76.695 43.745 112.107-5.068 35.498-26.345 69.165-53.698 100.713-27.349 31.542-60.63 60.812-89.568 87.585-14.455 13.373-27.828 26.127-38.795 38.205-10.958 12.068-19.575 23.528-24.46 34.323l2.149.965Zm24.705-30.85c-33.575-48.151-101.879-73.901-169.074-42.511C94.984 333.616 29.284 421.901.234 601.018l2.333.36c28.996-178.791 94.45-266.103 160.563-296.987 66.084-30.872 133.186-5.549 166.157 41.734l1.939-1.376Zm-26.854 29.885c-13.051 28.837-5.982 53.1 6.511 64.584 6.234 5.731 13.905 8.328 21.05 6.459 7.174-1.877 13.452-8.154 17.086-19.391l-2.246-.715c-3.471 10.733-9.271 16.201-15.413 17.808-6.169 1.613-13.051-.569-18.873-5.921-11.617-10.68-18.669-33.791-5.966-61.859l-2.149-.965Zm44.647 51.652c5.294-16.367 1.611-35.604-3.698-51.199-5.319-15.622-12.362-27.852-14.095-30.338l-1.939 1.376c1.595 2.287 8.542 14.315 13.797 29.751 5.265 15.463 8.738 34.086 3.689 49.695l2.246.715Z" fill="#E8E7FA"/></svg>