<svg width="661" height="419" viewBox="0 0 661 419" fill="none" xmlns="http://www.w3.org/2000/svg">
<path opacity="0.5" d="M481.424 322.218L482.337 323.417L481.424 322.218ZM527.454 304.008L525.944 304.19L527.454 304.008ZM498.104 405.288L497.059 404.2L498.104 405.288ZM482.337 323.417C494.042 314.556 510.376 307.063 529.967 300.226C549.542 293.394 572.26 287.254 596.675 281.053C645.456 268.661 700.995 256.035 751.223 237.204C801.442 218.378 846.608 193.263 874.529 155.734C902.517 118.115 913.012 68.2512 894.341 0.349227L891.409 1.17291C909.884 68.3661 899.415 117.226 872.091 153.952C844.701 190.768 800.207 215.62 750.175 234.377C700.151 253.13 644.846 265.703 595.95 278.124C571.526 284.327 548.697 290.495 528.986 297.374C509.291 304.247 492.6 311.867 480.511 321.019L482.337 323.417ZM528.966 303.827C520.637 229.172 459.574 158.482 364.841 152.717C270.147 146.954 142.331 206.072 0.219801 389.713L2.62194 391.543C144.474 208.236 271.42 150.062 364.626 155.735C457.792 161.405 517.765 230.878 525.944 304.19L528.966 303.827ZM480.511 321.019C448.216 345.467 441.338 377.067 448.367 397.613C451.875 407.867 458.913 415.473 468.089 417.738C477.302 420.012 488.195 416.789 499.148 406.375L497.059 404.2C486.599 414.146 476.736 416.75 468.849 414.803C460.926 412.848 454.522 406.189 451.246 396.614C444.711 377.508 450.904 347.213 482.337 323.417L480.511 321.019ZM499.148 406.375C515.102 391.208 522.716 367.328 526.275 346.55C529.841 325.735 529.395 307.681 528.966 303.827L525.944 304.19C526.34 307.735 526.802 325.504 523.278 346.071C519.748 366.674 512.274 389.734 497.059 404.2L499.148 406.375Z" fill="#E8E7FA" fill-opacity="0.7"/>
</svg>
