<svg width="835" height="306" viewBox="0 0 835 306" fill="none" xmlns="http://www.w3.org/2000/svg">
<path opacity="0.5" d="M339.632 215.51L340.11 216.94L339.632 215.51ZM389.075 213.1L387.586 212.786L389.075 213.1ZM328.66 299.525L328.023 298.159L328.66 299.525ZM340.11 216.94C354.046 212.322 371.923 210.491 392.672 210.329C413.404 210.168 436.889 211.674 462.001 213.669C512.172 217.653 568.818 223.592 622.434 221.947C676.042 220.303 726.89 211.078 765.413 184.545C804.028 157.948 830.028 114.123 834.228 43.8266L831.187 43.6617C827.029 113.224 801.378 156.107 763.679 182.072C725.889 208.101 675.761 217.294 622.353 218.933C568.955 220.57 512.548 214.657 462.257 210.662C437.137 208.667 413.538 207.151 392.661 207.313C371.803 207.475 353.547 209.311 339.154 214.081L340.11 216.94ZM390.564 213.416C406.73 140.058 371.696 53.4645 283.871 17.488C196.082 -18.4741 56.0344 -3.6849 -137.661 124.383L-135.977 126.889C57.3665 -0.945989 196.286 -15.1215 282.695 20.2758C369.067 55.6576 403.461 140.748 387.586 212.786L390.564 213.416ZM339.154 214.081C300.704 226.822 284.012 254.521 284.048 276.236C284.066 287.073 288.278 296.541 296.235 301.641C304.224 306.762 315.575 307.221 329.299 300.891L328.023 298.159C314.915 304.205 304.74 303.493 297.9 299.108C291.03 294.704 287.112 286.338 287.096 276.218C287.064 256.025 302.687 229.341 340.11 216.94L339.154 214.081ZM329.299 300.891C349.288 291.672 364.189 271.518 374.253 252.994C384.334 234.437 389.729 217.203 390.564 213.416L387.586 212.786C386.819 216.269 381.532 233.24 371.57 251.575C361.591 269.942 347.087 289.366 328.023 298.159L329.299 300.891Z" fill="#E8E7FA"/>
</svg>
