<svg width="472" height="821" fill="none" xmlns="http://www.w3.org/2000/svg"><path opacity=".5" d="m256.668 452.44 1.147-.451-1.147.451Zm49.935 17.082-1.035-.687 1.035.687ZM2.793 214.68l1.224-.157.001.01-1.224.147ZM233.32 399.376l1.189-.323-1.189.323Zm24.495 52.613c4.209 10.575 12.283 21.689 23.01 33.392 10.717 11.694 24.011 23.903 38.587 36.682 29.114 25.526 63.339 53.321 91.894 83.572 28.554 30.249 51.614 63.127 58.278 98.925 6.68 35.891-3.16 74.483-39.906 116.015l-1.851-1.66c36.351-41.087 45.843-78.933 39.331-113.922-6.53-35.08-29.187-67.522-57.635-97.66-28.447-30.135-62.507-57.792-91.723-83.407-14.589-12.79-27.969-25.073-38.784-36.872-10.804-11.788-19.116-23.168-23.493-34.163l2.292-.902Zm49.824 18.219c-32.59 50.095-97.449 78.153-160.126 47.408C84.922 486.911 25.036 397.803 1.569 214.826l2.45-.293C27.452 397.257 87.15 485.254 148.577 515.386c61.342 30.092 124.937 2.72 156.99-46.551l2.071 1.373Zm-52.116-17.317c-11.498-28.882-20.462-53.387-24.961-64.982-1.131-2.915-1.969-4.985-2.495-6.119a9.16 9.16 0 0 0-.31-.623c-.105-.189-.095-.129.018-.026.039.036.137.118.288.188.157.07.441.153.781.065.705-.18.838-.825.841-.836.041-.171.008-.244.036-.019.083.713.485 2.5 1.287 5.604.792 3.062 1.948 7.32 3.501 12.91l-2.378.645c-1.553-5.592-2.715-9.869-3.512-12.954-.787-3.045-1.244-5.019-1.352-5.941-.021-.183-.059-.533.018-.851.021-.085.182-.771.924-.962.359-.092.665-.006.846.076.175.079.299.181.369.243.229.209.394.5.485.662.12.214.251.481.393.788.567 1.22 1.433 3.365 2.559 6.269 4.532 11.678 13.453 36.072 24.954 64.961l-2.292.902Zm-21.014-53.838c2.174 7.835 7.912 15.794 15.406 23.454 7.475 7.641 16.592 14.878 25.368 21.286 8.806 6.429 17.133 11.927 23.209 16.239 3.006 2.132 5.472 3.982 7.091 5.473.799.738 1.467 1.454 1.879 2.125.375.611.794 1.629.177 2.578l-2.071-1.373c-.213.328.058.51-.204.082-.227-.369-.686-.895-1.44-1.59-1.488-1.37-3.834-3.139-6.842-5.271-5.947-4.221-14.449-9.844-23.237-16.259-8.819-6.44-18.064-13.771-25.682-21.559-7.599-7.767-13.688-16.095-16.032-24.54l2.378-.645ZM1.571 214.837c-4.132-30.184-1.132-74.708 21.422-110.121 22.626-35.526 64.79-61.66 138.457-55.19l-.19 2.472c-72.892-6.403-114.116 19.42-136.184 54.07-22.14 34.764-25.14 78.637-21.06 108.455l-2.445.314ZM161.45 49.525c73.184 6.428 118.55-.699 145.513-12.1 26.984-11.412 35.313-26.973 35.12-37.404L344.551 0c.22 11.85-9.153 28.102-36.611 39.714C280.457 51.335 234.636 58.444 161.26 52l.19-2.474Z" fill="#E8E7FA"/></svg>