<svg width="489" height="602" viewBox="0 0 489 602" fill="none" xmlns="http://www.w3.org/2000/svg">
<path opacity="0.5" d="M305.447 375.116L306.521 375.599L305.447 375.116ZM330.256 345.437L329.287 346.125L330.256 345.437ZM347.896 425.929L346.773 425.571L347.896 425.929ZM306.521 375.599C311.251 365.147 319.67 353.908 330.57 341.903C341.461 329.908 354.768 317.215 369.218 303.846C398.087 277.136 431.509 247.743 458.97 216.071C486.425 184.406 508.065 150.309 513.232 114.122C518.411 77.8491 507.011 39.6961 468.854 0.0410156L467.148 1.70067C504.905 40.9423 515.95 78.3964 510.893 113.808C505.825 149.306 484.548 182.973 457.195 214.521C429.846 246.063 396.565 275.333 367.627 302.106C353.172 315.479 339.799 328.233 328.832 340.311C317.874 352.379 309.257 363.839 304.372 374.634L306.521 375.599ZM331.226 344.749C297.651 296.598 229.347 270.848 162.152 302.238C94.9838 333.616 29.2838 421.901 0.234375 601.018L2.56654 601.378C31.5629 422.587 97.0175 335.275 163.13 304.391C229.214 273.519 296.316 298.842 329.287 346.125L331.226 344.749ZM304.372 374.634C291.321 403.471 298.39 427.734 310.883 439.218C317.117 444.949 324.788 447.546 331.933 445.677C339.107 443.8 345.385 437.523 349.019 426.286L346.773 425.571C343.302 436.304 337.502 441.772 331.36 443.379C325.191 444.992 318.309 442.81 312.487 437.458C300.87 426.778 293.818 403.667 306.521 375.599L304.372 374.634ZM349.019 426.286C354.313 409.919 350.63 390.682 345.321 375.087C340.002 359.465 332.959 347.235 331.226 344.749L329.287 346.125C330.882 348.412 337.829 360.44 343.084 375.876C348.349 391.339 351.822 409.962 346.773 425.571L349.019 426.286Z" fill="#E8E7FA"/>
</svg>
