<svg width="661" height="419" fill="none" xmlns="http://www.w3.org/2000/svg"><path opacity=".5" d="m481.424 322.218.913 1.199-.913-1.199Zm46.03-18.21-1.51.182 1.51-.182Zm-29.35 101.28-1.045-1.088 1.045 1.088Zm-15.767-81.871c11.705-8.861 28.039-16.354 47.63-23.191 19.575-6.832 42.293-12.972 66.708-19.173 48.781-12.392 104.32-25.018 154.548-43.849 50.219-18.826 95.385-43.941 123.306-81.47 27.988-37.619 38.483-87.483 19.812-155.385l-2.932.824c18.475 67.193 8.006 116.053-19.318 152.779-27.39 36.816-71.884 61.668-121.916 80.425-50.024 18.753-105.329 31.326-154.225 43.747-24.424 6.203-47.253 12.371-66.964 19.25-19.695 6.873-36.386 14.493-48.475 23.645l1.826 2.398Zm46.629-19.59c-8.329-74.655-69.392-145.345-164.125-151.11-94.694-5.763-222.51 53.355-364.621 236.996l2.402 1.83C144.474 208.236 271.42 150.062 364.626 155.735c93.166 5.67 153.139 75.143 161.318 148.455l3.022-.363Zm-48.455 17.192c-32.295 24.448-39.173 56.048-32.144 76.594 3.508 10.254 10.546 17.86 19.722 20.125 9.213 2.274 20.106-.949 31.059-11.363l-2.089-2.175c-10.46 9.946-20.323 12.55-28.21 10.603-7.923-1.955-14.327-8.614-17.603-18.189-6.535-19.106-.342-49.401 31.091-73.197l-1.826-2.398Zm18.637 85.356c15.954-15.167 23.568-39.047 27.127-59.825 3.566-20.815 3.12-38.869 2.691-42.723l-3.022.363c.396 3.545.858 21.314-2.666 41.881-3.53 20.603-11.004 43.663-26.219 58.129l2.089 2.175Z" fill="#E8E7FA" fill-opacity=".7"/></svg>