<svg width="835" height="306" fill="none" xmlns="http://www.w3.org/2000/svg"><path opacity=".5" d="m339.632 215.51.478 1.43-.478-1.43Zm49.443-2.41-1.489-.314 1.489.314Zm-60.415 86.425-.637-1.366.637 1.366Zm11.45-82.585c13.936-4.618 31.813-6.449 52.562-6.611 20.732-.161 44.217 1.345 69.329 3.34 50.171 3.984 106.817 9.923 160.433 8.278 53.608-1.644 104.456-10.869 142.979-37.402 38.615-26.597 64.615-70.422 68.815-140.718l-3.041-.165c-4.158 69.562-29.809 112.445-67.508 138.41-37.79 26.029-87.918 35.222-141.326 36.861-53.398 1.637-109.805-4.276-160.096-8.271-25.12-1.995-48.719-3.511-69.596-3.349-20.858.162-39.114 1.998-53.507 6.768l.956 2.859Zm50.454-3.524c16.166-73.358-18.868-159.952-106.693-195.928C196.082-18.474 56.034-3.685-137.661 124.383l1.684 2.506C57.367-.946 196.286-15.121 282.695 20.276c86.372 35.382 120.766 120.472 104.891 192.51l2.978.63Zm-51.41.665c-38.45 12.741-55.142 40.44-55.106 62.155.018 10.837 4.23 20.305 12.187 25.405 7.989 5.121 19.34 5.58 33.064-.75l-1.276-2.732c-13.108 6.046-23.283 5.334-30.123.949-6.87-4.404-10.788-12.77-10.804-22.89-.032-20.193 15.591-46.877 53.014-59.278l-.956-2.859Zm-9.855 86.81c19.989-9.219 34.89-29.373 44.954-47.897 10.081-18.557 15.476-35.791 16.311-39.578l-2.978-.63c-.767 3.483-6.054 20.454-16.016 38.789-9.979 18.367-24.483 37.791-43.547 46.584l1.276 2.732Z" fill="#E8E7FA"/></svg>