<svg width="51" height="57" fill="none" xmlns="http://www.w3.org/2000/svg"><path d="M5.3 31.223c.417 1.366.862 2.717 1.263 4.098a17.118 17.118 0 0 0 15.96 12.709 16.732 16.732 0 0 0 16.658-10.616 17.594 17.594 0 0 0-14.357-24.408c-1.202-.163-2.746.49-3.518-1.173 4.988-2.48 13.614.995 17.98 7.424a19.687 19.687 0 0 1-2.584 25.64 19.078 19.078 0 0 1-25.017 1.619c-5.449-4.024-8.968-11.581-6.384-15.293Z" fill="#8F21E6"/><path d="M9.325 30.852a12.857 12.857 0 0 1 8.106-12.739c5.315-2.479 10.096-1.098 14.416 2.495a6.31 6.31 0 0 1 1.663 1.945 1.782 1.782 0 0 1-.193 1.648 1.753 1.753 0 0 1-1.633.103c-.846-.49-1.485-1.291-2.286-1.87-5.137-3.742-8.597-3.252-12.888-.312a10.392 10.392 0 0 0-3.43 12.872 10.69 10.69 0 0 0 11.878 6.043c.476-.104.936-.342 1.485-.43.98-.15 2.168-.402 2.375.964.208 1.366-.846 1.485-1.855 1.886-9.19 3.207-18.41-4.558-17.638-12.605Z" fill="#8F21E6"/><path d="M45.284 30.288c-1.099-7.81-4.365-14.253-11.195-18.515-4.677-2.969-9.873-3.221-15.04-2.434A21.616 21.616 0 0 0 3.074 38.587c1.689 4 4.46 7.45 8.003 9.962 3.489 2.569 7.72 3.296 11.877 4.187-5.36 2.182-15.188-3.088-19.138-9.517-5.938-9.68-4.825-20.459 2.495-28.372a22.419 22.419 0 0 1 27.407-4.9c7.587 3.757 13.496 13.481 11.566 20.34ZM35.767 56.612a2.198 2.198 0 0 1 1.217-3.148A25.536 25.536 0 0 0 48.045 40.95c.149-.342.208-.861.46-.98.594-.297 1.41-.713 1.9-.505a1.856 1.856 0 0 1 .55 1.767 45.49 45.49 0 0 1-3.192 6.22 24.513 24.513 0 0 1-9.175 8.419c-.907.362-1.854.611-2.821.742ZM27.705.268A10.051 10.051 0 0 1 30.08 0a23.755 23.755 0 0 1 12.234 5.612c.46.386 1.084.817 1.217 1.322a2.731 2.731 0 0 1-.326 1.93c-.134.222-1.173.148-1.604-.119-2.093-1.262-4.038-2.776-6.176-3.92a42.899 42.899 0 0 0-4.81-1.707c-1.143-.46-2.212-1.113-3.326-1.678l.416-1.172Z" fill="#8F21E6"/></svg>