<svg width="51" height="57" viewBox="0 0 51 57" fill="none" xmlns="http://www.w3.org/2000/svg">
<path d="M5.3008 31.2232C5.71651 32.5892 6.16206 33.9402 6.56292 35.321C7.50719 38.8716 9.56877 42.0242 12.4429 44.3128C15.3171 46.6015 18.8513 47.9047 22.5233 48.0298C26.0671 48.257 29.5912 47.3508 32.5858 45.4425C35.5805 43.5341 37.8905 40.7226 39.1814 37.4144C40.2634 34.8807 40.7351 32.1282 40.5588 29.3788C40.3824 26.6294 39.5629 23.9599 38.1661 21.5851C36.7693 19.2104 34.8343 17.1968 32.517 15.7067C30.1996 14.2167 27.5647 13.2916 24.8244 13.0062C23.6218 12.8428 22.0778 13.496 21.3057 11.8332C26.2943 9.35377 34.9203 12.8279 39.2852 19.2566C42.0085 23.1273 43.2463 27.8496 42.7718 32.5584C42.2974 37.2672 40.1425 41.6475 36.7019 44.8971C33.4306 48.1427 29.0951 50.0945 24.4966 50.392C19.898 50.6895 15.3472 49.3126 11.685 46.5156C6.23622 42.4921 2.71745 34.935 5.3008 31.2232Z" fill="#8F21E6"/>
<path d="M9.32461 30.8519C9.15971 28.145 9.85499 25.4553 11.311 23.1674C12.7669 20.8794 14.9089 19.1105 17.4309 18.1134C22.7461 15.634 27.5267 17.0146 31.8471 20.6076C32.5284 21.1355 33.0944 21.7975 33.51 22.5526C33.6139 22.8223 33.6507 23.1133 33.6171 23.4004C33.5835 23.6875 33.4804 23.9622 33.317 24.2006C33.0738 24.3495 32.798 24.4367 32.5134 24.4549C32.2288 24.473 31.944 24.4213 31.6838 24.3044C30.8376 23.8145 30.1993 23.0127 29.3976 22.4337C24.2606 18.6923 20.8012 19.1823 16.5104 22.122C14.5216 23.5261 13.0889 25.5839 12.4622 27.9364C11.8354 30.2889 12.0544 32.7867 13.0809 34.9943C14.0839 37.1976 15.805 38.9951 17.9627 40.0928C20.1204 41.1905 22.5869 41.5234 24.9584 41.0368C25.4335 40.9329 25.8937 40.6953 26.4431 40.6062C27.4229 40.4578 28.6107 40.2054 28.8185 41.5713C29.0264 42.9372 27.9722 43.056 26.9627 43.4569C17.7725 46.6638 8.55257 38.8989 9.32461 30.8519Z" fill="#8F21E6"/>
<path d="M45.2837 30.2875C44.1851 22.478 40.9187 16.0346 34.0892 11.7735C29.4124 8.80415 24.216 8.55173 19.0493 9.33862C15.9231 9.94217 12.9689 11.2288 10.3977 13.1067C7.82644 14.9845 5.7017 17.4072 4.17547 20.2015C2.64924 22.9958 1.75915 26.0929 1.56875 29.2711C1.37836 32.4494 1.89237 35.6303 3.0741 38.5868C4.76288 42.5873 7.53426 46.0375 11.0766 48.5492C14.5656 51.1177 18.7969 51.8451 22.954 52.7359C17.5943 54.9184 7.7657 49.6477 3.81644 43.219C-2.12229 33.5389 -1.0087 22.7601 6.31079 14.8467C9.65819 11.0604 14.1867 8.51619 19.1617 7.62684C24.1366 6.73749 29.2661 7.55531 33.718 9.94739C41.3047 13.7036 47.2138 23.4282 45.2837 30.2875Z" fill="#8F21E6"/>
<path d="M35.7668 56.6119C35.6106 56.3304 35.5184 56.0181 35.4962 55.6969C35.4741 55.3757 35.5227 55.0535 35.6389 54.7532C35.755 54.4529 35.9358 54.1819 36.1683 53.9592C36.4007 53.7365 36.6794 53.5676 36.9844 53.4644C41.9701 50.6503 45.8654 46.2425 48.0452 40.9486C48.1937 40.6072 48.2531 40.0875 48.5055 39.9687C49.0994 39.6718 49.9158 39.2561 50.4058 39.4639C50.6439 39.6847 50.8199 39.9639 50.9163 40.2739C51.0127 40.5839 51.0261 40.9138 50.9551 41.2306C50.0523 43.3831 48.9852 45.4629 47.7632 47.4516C45.4803 51.0006 42.3198 53.9001 38.5878 55.8696C37.6815 56.232 36.7341 56.4813 35.7668 56.6119Z" fill="#8F21E6"/>
<path d="M27.7048 0.267581C28.4832 0.084322 29.2806 -0.00547313 30.0802 0.000257931C34.614 0.652393 38.8624 2.60138 42.314 5.61241C42.7743 5.99842 43.3978 6.429 43.5314 6.9338C43.6647 7.59542 43.5484 8.28285 43.2048 8.86378C43.0712 9.08648 42.032 9.01231 41.6014 8.74507C39.508 7.48309 37.563 5.96869 35.4251 4.82548C33.8569 4.16136 32.2506 3.59119 30.6147 3.11806C29.4715 2.65781 28.4025 2.00454 27.289 1.44036L27.7048 0.267581Z" fill="#8F21E6"/>
</svg>
