<svg width="84" height="53" fill="none" xmlns="http://www.w3.org/2000/svg"><path d="M0 52.875V32.964c0-1.81 1.122-2.589 2.552-3.294l37.143-18.355c6.86-3.403 13.703-6.86 20.6-10.154A12.02 12.02 0 0 1 64.981.056c4.363-.126 8.725 0 13.105 0 1.593 0 3.204.308 4.78.453.246.68.421 1.384.524 2.1v17.177a3.82 3.82 0 0 1-2.335 3.928c-16.454 8-33.016 15.82-49.198 24.364a40.057 40.057 0 0 1-22.391 4.797c-2.86-.181-5.847 0-9.467 0Zm22.898-2.733C40.564 41.435 57.434 33.127 74.286 24.8a10.026 10.026 0 0 0 1.702-1.575c-7.096-1.411-11.838-.868-17.341 1.81-2.57 1.231-5.195 2.317-7.765 3.62-8.417 3.929-16.834 7.839-25.197 11.875-1.104.525-2.534 1.539-2.733 2.552a37.7 37.7 0 0 0-.036 7.06h-.018ZM60.674 3.568c-1.502.58-2.462.887-3.348 1.321A1992.63 1992.63 0 0 0 44.8 11.025a10039.196 10039.196 0 0 0-34.193 17.16c-.633.308-1.05 1.086-1.99 2.118 5.43.525 9.936.706 14.335-1.267 2.317-1.05 4.616-2.154 6.914-3.222 9.25-4.308 18.464-8.689 27.767-12.852a4.923 4.923 0 0 0 3.44-5.575c-.11-1.013-.2-2.045-.38-3.82h-.019ZM2.751 33.072a61.2 61.2 0 0 0 .145 17.36h16.87c.402-5.782.36-11.585-.126-17.36H2.75ZM63.733 19.37c5.01.684 10.083.775 15.115.271a2.895 2.895 0 0 0 1.936-1.972c.428-4.895.343-9.821-.253-14.698-5.738-.127-11.15-.652-16.798.29v16.11Zm-3.439-4.254c-1.176.399-2.027.598-2.805.96a3647.164 3647.164 0 0 0-31.315 14.661c-3.982 1.81-4.344 3.041-2.39 7.24 11.26-5.23 22.518-10.443 33.74-15.747 3.856-1.701 3.91-2.118 2.806-7.114h-.036Z" fill="#fff"/><path d="M22.915 50.142a37.699 37.699 0 0 1 0-7.24c.2-1.014 1.63-2.028 2.734-2.553 8.362-4.037 16.78-7.946 25.196-11.874 2.57-1.213 5.195-2.3 7.766-3.62 5.43-2.625 10.245-3.168 17.34-1.81a10.026 10.026 0 0 1-1.701 1.574c-16.798 8.508-33.668 16.816-51.335 25.523ZM60.693 3.57c.18 1.81.271 2.805.398 3.819a4.923 4.923 0 0 1-3.44 5.575c-9.303 4.163-18.517 8.543-27.766 12.851-2.3 1.068-4.598 2.172-6.915 3.222-4.398 1.973-9.05 1.81-14.336 1.267.942-1.031 1.358-1.81 1.991-2.117a6030.45 6030.45 0 0 1 34.193-17.16c4.163-2.064 8.339-4.109 12.526-6.136.887-.435 1.846-.742 3.349-1.322Z" fill="#000"/><path d="M2.788 33.073h16.888a113.32 113.32 0 0 1 .127 17.36H2.933a61.2 61.2 0 0 1-.145-17.36Z" fill="#F5050E"/><path d="M63.77 19.372V3.262c5.647-.941 11.06-.417 16.797-.29.597 4.877.682 9.803.254 14.698a2.896 2.896 0 0 1-1.937 1.973 64.363 64.363 0 0 1-15.114-.271Z" fill="#215EE6"/><path d="M22.801 38.095c-1.141-5.14-1.087-5.527 2.797-7.383 11.411-5.44 22.86-10.786 34.31-16.152 2.005 4.363 1.64 5.525-2.41 7.382A7523.28 7523.28 0 0 1 25.655 36.98c-.791.5-1.657.706-2.854 1.116Z" fill="#000"/></svg>