<svg width="84" height="53" viewBox="0 0 84 53" fill="none" xmlns="http://www.w3.org/2000/svg">
<path d="M0 52.8748C0 45.6344 0 39.3172 0 32.9638C0 31.1537 1.12221 30.3754 2.55218 29.6695L39.6953 11.3151C46.5556 7.91217 53.3977 4.45492 60.2942 1.16055C61.7664 0.47995 63.3612 0.104274 64.9824 0.056314C69.3447 -0.0703925 73.707 0.056314 78.0874 0.056314C79.6803 0.056314 81.2913 0.36403 82.8661 0.508837C83.1127 1.18886 83.2885 1.89254 83.391 2.60861C83.391 8.3466 83.391 14.0665 83.391 19.7864C83.4772 20.6053 83.2965 21.4302 82.8757 22.138C82.4549 22.8459 81.8166 23.3987 81.056 23.7142C64.6022 31.7148 48.0398 39.5345 31.8576 48.0781C25.0197 51.8217 17.2381 53.4887 9.46675 52.8748C6.6068 52.6938 3.62018 52.8748 0 52.8748ZM22.8977 50.1416C40.5642 41.4351 57.4342 33.1268 74.2861 24.8004C74.9123 24.343 75.4833 23.8144 75.9876 23.2255C68.8921 21.8136 64.1497 22.3566 58.647 25.0356C56.0767 26.2664 53.452 27.3525 50.8817 28.6558C42.4647 32.5836 34.0478 36.4936 25.6852 40.5301C24.5811 41.055 23.1511 42.0686 22.952 43.0822C22.7191 45.4291 22.707 47.7926 22.9157 50.1416H22.8977ZM60.6743 3.5679C59.172 4.14713 58.2125 4.45492 57.3256 4.88934C53.1503 6.91664 48.9751 8.96196 44.7998 11.0255C33.3962 16.7212 21.9986 22.4412 10.6071 28.1852C9.97358 28.4929 9.55731 29.2712 8.61606 30.303C14.0463 30.8279 18.5534 31.0089 22.952 29.0359C25.2689 27.9861 27.5677 26.882 29.8665 25.814C39.1161 21.506 48.3295 17.1255 57.6334 12.9623C58.7907 12.6166 59.7805 11.8577 60.4146 10.8297C61.0487 9.80175 61.2829 8.57651 61.0725 7.38717C60.9639 6.37351 60.8735 5.34179 60.6924 3.5679H60.6743ZM2.75138 33.0724C1.97458 38.8361 2.02326 44.6812 2.8961 50.4312H19.7662C20.1679 44.6502 20.1255 38.8469 19.6395 33.0724H2.75138ZM63.7334 19.3701C68.7433 20.0539 73.8164 20.145 78.8476 19.6415C79.3093 19.5002 79.7284 19.2457 80.0666 18.9011C80.4049 18.5565 80.6517 18.1328 80.7844 17.6686C81.2125 12.7738 81.1275 7.84774 80.531 2.97065C74.793 2.84394 69.3809 2.31896 63.7334 3.26021V19.3701ZM60.2942 15.1163C59.1176 15.5145 58.2669 15.7137 57.4885 16.0757C47.0504 20.9026 36.6122 25.7898 26.174 30.7374C22.1918 32.5475 21.8297 33.7784 23.7846 37.9778C35.0434 32.7466 46.3022 27.5335 57.5248 22.2299C61.3803 20.5285 61.4346 20.1122 60.3304 15.1163H60.2942Z" fill="white"/>
<path d="M22.9154 50.1416C22.6831 47.7337 22.6831 45.3091 22.9154 42.9012C23.1145 41.8875 24.5445 40.8738 25.6487 40.3489C34.0113 36.3124 42.4283 32.4026 50.8452 28.4747C53.4156 27.2619 56.0402 26.1759 58.6105 24.8545C64.0408 22.2299 68.8556 21.6869 75.9512 23.0444C75.4468 23.6334 74.8759 24.1618 74.2497 24.6192C57.4521 33.1266 40.5819 41.435 22.9154 50.1416Z" fill="black"/>
<path d="M60.6926 3.56934C60.8736 5.37943 60.964 6.37495 61.0907 7.3886C61.3011 8.57795 61.0669 9.80319 60.4328 10.8311C59.7987 11.8591 58.8088 12.6181 57.6515 12.9637C48.3476 17.1269 39.1343 21.5074 29.8847 25.8154C27.5859 26.8834 25.2871 27.9875 22.9702 29.0373C18.5717 31.0104 13.9197 30.8475 8.63428 30.3044C9.57553 29.2727 9.9918 28.4944 10.6253 28.1867C22.0048 22.4306 33.4024 16.7106 44.818 11.0269C48.9812 8.9634 53.1565 6.91808 57.3438 4.89078C58.2308 4.45636 59.1902 4.14857 60.6926 3.56934Z" fill="black"/>
<path d="M2.78807 33.0732H19.6763C20.1623 38.8478 20.2047 44.6511 19.803 50.4321H2.93291C2.06007 44.6821 2.01128 38.837 2.78807 33.0732Z" fill="#F5050E"/>
<path d="M63.7695 19.3716V3.26177C69.417 2.32052 74.8292 2.8455 80.5672 2.9722C81.1638 7.8493 81.2487 12.7754 80.8207 17.6701C80.6879 18.1344 80.4412 18.5581 80.1029 18.9027C79.7646 19.2472 79.3456 19.5017 78.8839 19.6431C73.8526 20.1466 68.7795 20.0555 63.7695 19.3716Z" fill="#215EE6"/>
<path d="M22.8012 38.095C21.6597 32.9553 21.7138 32.568 25.5975 30.7117C37.0094 25.2727 48.4585 19.9257 59.9075 14.5602C61.9128 18.9228 61.5479 20.0854 57.4983 21.9422C46.8963 26.9792 36.2817 31.9915 25.655 36.9794C24.8639 37.4798 23.9981 37.6855 22.8012 38.095Z" fill="black"/>
</svg>
