<svg width="152" height="85" viewBox="0 0 152 85" fill="none" xmlns="http://www.w3.org/2000/svg">
<path d="M14.8034 44.1547C13.0067 42.665 11.3294 41.0369 9.78741 39.2853C9.38688 38.8497 9.08168 38.3356 8.89084 37.7756C8.70001 37.2156 8.62797 36.6218 8.67918 36.0323C8.73039 35.4429 8.90383 34.8705 9.18841 34.3515C9.47298 33.8325 9.86234 33.3783 10.332 33.0178C11.8352 31.8572 13.6997 31.2634 15.5974 31.3407C17.8494 31.9153 19.9886 32.8638 21.9257 34.1468C31.7673 39.6951 42.7789 42.8501 54.0699 43.3566C65.3608 43.8631 76.6138 41.7068 86.9183 37.0622C98.4834 31.7955 108.711 23.99 116.84 14.2274C119.738 10.9308 122.47 7.4834 125.194 4.00589C125.554 3.3157 126.053 2.70752 126.66 2.21938C127.266 1.73125 127.967 1.37387 128.719 1.1698C129.471 0.965729 130.256 0.919279 131.026 1.03355C131.797 1.14782 132.535 1.42024 133.194 1.83366C136.128 3.53529 136.328 6.75899 134.005 10.6813C130.053 17.3243 130.076 17.2865 136.195 22.3278C140.287 25.8245 144.576 29.2076 148.487 32.8783C151.566 35.667 151.97 38.679 150.053 41.0226C148.136 43.3663 145.189 43.5296 141.899 41.0509C137.376 37.6303 133.087 33.862 128.632 30.3282C126.666 28.7684 124.661 27.3145 122.098 25.5518C118.376 28.7667 114.873 31.7018 111.581 34.8405C110.756 35.4907 110.22 36.44 110.091 37.4823C109.962 38.5245 110.25 39.5753 110.892 40.4061C113.534 44.5243 116.192 48.7029 118.486 52.9726C120.086 55.3094 121.308 57.8833 122.107 60.6C122.172 61.5745 122.007 62.5507 121.625 63.4497C121.243 64.3488 120.654 65.1455 119.907 65.7754C119.041 66.1759 118.088 66.3494 117.137 66.2796C116.187 66.2098 115.27 65.899 114.473 65.3765C112.157 62.9862 110.14 60.3251 108.464 57.4509C105.595 53.1972 102.862 48.8451 99.5005 43.6559L85.1502 50.4742C86.6002 56.2403 87.9818 61.7346 89.3558 67.1987C90.0033 69.7077 90.4833 72.2572 90.7927 74.8299C90.9404 75.4657 90.9589 76.1247 90.8474 76.768C90.736 77.4112 90.4971 78.0257 90.1441 78.5752C89.7911 79.1247 89.3314 79.5981 88.7924 79.9673C88.2534 80.3365 87.646 80.5943 87.0058 80.7251C86.3241 80.9584 85.6016 81.0485 84.8835 80.99C84.1654 80.9315 83.4672 80.7255 82.8327 80.3849C82.1981 80.0443 81.6407 79.5765 81.1955 79.0107C80.7504 78.4449 80.4274 77.7932 80.2459 77.0966C79.3978 74.6416 78.7132 72.1331 78.1969 69.5875C76.8836 64.3648 75.5703 59.1423 74.2494 53.8895C68.718 54.1249 63.8589 54.2234 58.9851 54.5181C54.1112 54.8129 53.3788 55.2217 52.3803 60.9615C51.3818 66.7013 50.2397 72.6376 49.4 78.4979C48.8676 82.1304 47.0945 84.4058 43.3989 84.1475C39.1819 83.8598 38.7395 80.4403 39.091 77.2385C39.7266 71.3332 40.7327 65.4952 41.6026 59.6273C42.4726 53.7594 42.034 53.5486 36.8935 51.8882C33.3705 50.6557 29.553 49.5293 25.0474 48.0945C22.8682 52.2053 20.6662 56.2257 18.4793 60.3064C16.2925 64.387 14.0086 69.6153 11.452 74.142C8.89536 78.6687 6.31146 79.2545 3.31701 77.568C-0.418466 75.4902 0.454945 72.5742 1.88734 69.582L10.3538 52.1424L14.8034 44.1547Z" fill="#3015D9"/>
</svg>
