<svg width="152" height="85" fill="none" xmlns="http://www.w3.org/2000/svg"><path d="M14.803 44.155a44.659 44.659 0 0 1-5.016-4.87 4.26 4.26 0 0 1 .545-6.267 8.078 8.078 0 0 1 5.265-1.677 20.75 20.75 0 0 1 6.329 2.806 72.026 72.026 0 0 0 32.144 9.21 72.08 72.08 0 0 0 32.848-6.295 84.517 84.517 0 0 0 29.922-22.835c2.898-3.296 5.63-6.744 8.354-10.221a5.639 5.639 0 0 1 3.525-2.836 5.643 5.643 0 0 1 4.475.664c2.934 1.701 3.134 4.925.811 8.847-3.952 6.643-3.929 6.606 2.19 11.647 4.092 3.497 8.381 6.88 12.292 10.55 3.079 2.789 3.483 5.801 1.566 8.145-1.917 2.343-4.864 2.507-8.154.028-4.523-3.42-8.812-7.189-13.267-10.723-1.966-1.56-3.971-3.014-6.534-4.776-3.722 3.215-7.225 6.15-10.517 9.288a3.982 3.982 0 0 0-.689 5.566c2.642 4.118 5.3 8.297 7.594 12.567a26.97 26.97 0 0 1 3.621 7.627 6.227 6.227 0 0 1-2.2 5.175 5.619 5.619 0 0 1-5.434-.399 41.248 41.248 0 0 1-6.009-7.925c-2.869-4.254-5.602-8.606-8.963-13.795l-14.35 6.818L89.355 67.2a58.486 58.486 0 0 1 1.437 7.63 4.881 4.881 0 0 1-.649 3.746 4.893 4.893 0 0 1-3.138 2.15 5.24 5.24 0 0 1-5.81-1.714 5.227 5.227 0 0 1-.95-1.914 58.78 58.78 0 0 1-2.05-7.51L74.25 53.89c-5.531.236-10.39.334-15.264.63-4.874.294-5.606.703-6.605 6.443-.998 5.74-2.14 11.676-2.98 17.536-.532 3.632-2.306 5.908-6.001 5.65-4.217-.288-4.66-3.708-4.308-6.91.636-5.905 1.642-11.743 2.512-17.61.87-5.869.431-6.08-4.71-7.74-3.523-1.232-7.34-2.359-11.846-3.794-2.179 4.111-4.38 8.132-6.568 12.212-2.186 4.081-4.47 9.31-7.027 13.836-2.557 4.527-5.14 5.112-8.135 3.426-3.735-2.078-2.862-4.994-1.43-7.986l8.467-17.44 4.45-7.987Z" fill="#3015D9"/></svg>