<svg width="193" height="25" viewBox="0 0 193 25" fill="none" xmlns="http://www.w3.org/2000/svg">
<path d="M0.824 24V1.088H9.752L14.968 15.936H15.288L20.376 1.088H29.464V24H22.936V10.24H22.616L17.752 24H12.536L7.672 10.272H7.352V24H0.824ZM51.1265 21.792C49.1638 23.584 46.5718 24.48 43.3505 24.48C40.1292 24.48 37.5265 23.584 35.5425 21.792C33.5798 20 32.5985 17.6 32.5985 14.592V1.088H39.3505V14.368C39.3505 15.7547 39.7132 16.864 40.4385 17.696C41.1638 18.528 42.1345 18.944 43.3505 18.944C44.5452 18.944 45.5052 18.528 46.2305 17.696C46.9772 16.8427 47.3505 15.7333 47.3505 14.368V1.088H54.1025V14.592C54.1025 17.6 53.1105 20 51.1265 21.792ZM57.2242 24V1.088H63.9762V18.24H73.8643V24H57.2242ZM78.3852 24V6.624H71.2172V1.088H92.3052V6.624H85.1372V24H78.3852ZM94.062 24V1.088H100.814V24H94.062Z" fill="#34334A"/>
<path d="M109.754 24V6.624H102.586V1.088H123.674V6.624H116.506V24H109.754ZM125.431 24V1.088H143.063V6.4H131.959V10.24H142.455V14.624H131.959V18.688H143.383V24H125.431ZM157.356 24.48C153.708 24.48 150.71 23.3707 148.364 21.152C146.038 18.9333 144.876 16.064 144.876 12.544C144.876 9.024 146.038 6.16533 148.364 3.968C150.71 1.74933 153.708 0.639999 157.356 0.639999C160.449 0.639999 163.084 1.48267 165.26 3.168C167.436 4.832 168.694 6.99733 169.036 9.664L162.764 10.336C162.508 9.12 161.889 8.11733 160.908 7.328C159.926 6.53867 158.806 6.144 157.548 6.144C155.777 6.144 154.348 6.73067 153.26 7.904C152.172 9.07733 151.628 10.624 151.628 12.544C151.649 14.464 152.204 16.0107 153.292 17.184C154.38 18.3573 155.788 18.944 157.516 18.944C158.774 18.944 159.894 18.56 160.876 17.792C161.878 17.0027 162.518 16.0107 162.796 14.816L169.068 15.552C168.79 18.1973 167.553 20.352 165.356 22.016C163.18 23.6587 160.513 24.48 157.356 24.48ZM171.487 24V1.088H178.239V9.536H186.079V1.088H192.831V24H186.079V14.816H178.239V24H171.487Z" fill="#215EE6"/>
</svg>
