<svg width="54" height="49" viewBox="0 0 54 49" fill="none" xmlns="http://www.w3.org/2000/svg">
<path d="M6.80682 35.3284L12.3061 26.1104C14.4785 28.7798 16.1882 31.7945 17.3641 35.029C13.9448 36.069 10.7934 35.6436 6.80682 35.3284Z" fill="#215EE6"/>
<path d="M21.5557 34.9029L26.6295 26.3625C29.387 28.8206 30.2537 32.035 32.1761 34.5562C29.6864 35.8956 26.015 36.0374 21.5557 34.9029Z" fill="#215EE6"/>
<path d="M41.5988 26.0631L47.0035 35.3599H36.2728C37.568 32.0095 39.3638 28.875 41.5988 26.0631Z" fill="#215EE6"/>
<path d="M21.303 9.45438L26.9283 0L32.3489 9.029C28.7089 10.0217 25.3999 9.58044 21.303 9.45438Z" fill="#215EE6"/>
<path d="M24.8485 48.2802H14.7955C14.8601 47.6621 14.9975 47.0538 15.2051 46.468C16.4972 44.2148 17.8366 42.0087 19.3493 39.4718C21.7949 41.9779 23.6707 44.9825 24.8485 48.2802Z" fill="#215EE6"/>
<path d="M10.5574 48.3429H0C0.993914 44.9918 2.77708 41.928 5.19989 39.4085L10.5574 48.3429Z" fill="#215EE6"/>
<path d="M19.7751 12.8894L25.1483 21.9972H14.8588C15.5364 18.6724 17.6794 16.2772 19.7751 12.8894Z" fill="#215EE6"/>
<path d="M34.2091 38.8881L39.6297 48.2637H28.5995L34.2091 38.8881Z" fill="#215EE6"/>
<path d="M39.7241 22.186H29.3243C30.2225 18.7509 32.2709 16.277 34.3194 13.0782C36.0842 16.0564 37.6757 18.7194 39.7241 22.186Z" fill="#215EE6"/>
<path d="M43.5056 48.2338L48.5637 39.5673C51.0759 41.9529 52.9456 44.9337 53.9999 48.2338H43.5056Z" fill="#215EE6"/>
</svg>
