<svg width="54" height="49" fill="none" xmlns="http://www.w3.org/2000/svg"><path d="m6.807 35.328 5.5-9.218a30.803 30.803 0 0 1 5.057 8.919c-3.42 1.04-6.57.615-10.557.3ZM21.556 34.903l5.073-8.54c2.758 2.458 3.625 5.672 5.547 8.193-2.49 1.34-6.161 1.481-10.62.347ZM41.599 26.063l5.405 9.297H36.273a35.531 35.531 0 0 1 5.326-9.297ZM21.303 9.454 26.928 0l5.42 9.029c-3.64.993-6.948.551-11.045.425ZM24.849 48.28H14.796a7.876 7.876 0 0 1 .41-1.812c1.291-2.253 2.63-4.46 4.143-6.996a24.328 24.328 0 0 1 5.5 8.808ZM10.557 48.343H0a21.856 21.856 0 0 1 5.2-8.935l5.357 8.935ZM19.775 12.89l5.373 9.107h-10.29c.678-3.325 2.821-5.72 4.917-9.108ZM34.21 38.888l5.42 9.376H28.6l5.61-9.376ZM39.724 22.186h-10.4c.898-3.435 2.947-5.909 4.995-9.108 1.765 2.978 3.357 5.641 5.405 9.108ZM43.506 48.234l5.058-8.667A20.594 20.594 0 0 1 54 48.234H43.506Z" fill="#215EE6"/></svg>