<svg width="66" height="67" viewBox="0 0 66 67" fill="none" xmlns="http://www.w3.org/2000/svg">
<path d="M64.2008 44.5794L64.1926 44.5993L64.1851 44.6195C63.6895 45.9663 62.9073 46.8634 61.8607 47.4143C60.7915 47.977 59.3401 48.2332 57.4301 48.0816C54.7401 47.7717 52.0352 47.6093 49.3275 47.5951L49.3116 47.595L49.2958 47.5954C45.7381 47.6742 42.2513 48.6061 39.1287 50.3128C36.0123 52.0161 33.3495 54.4413 31.3633 57.3852C30.8554 58.0837 30.3761 58.8089 29.9139 59.5082C29.797 59.6851 29.6812 59.8603 29.5663 60.033C28.9842 60.9079 28.414 61.7365 27.785 62.5013L27.7531 62.5401L27.7247 62.5814C27.0677 63.5387 26.1104 64.2497 25.0041 64.602C23.8979 64.9543 22.7058 64.9279 21.6162 64.5269C20.5267 64.1259 19.6019 63.3732 18.9879 62.3877C18.374 61.4023 18.1061 60.2403 18.2264 59.0855L18.2312 59.0402L18.2323 58.9946C18.2618 57.8098 18.3525 56.5987 18.4515 55.3508C18.4606 55.2363 18.4697 55.1214 18.4789 55.0062C18.5688 53.8781 18.6611 52.7203 18.7104 51.566C18.943 47.209 17.9529 42.8737 15.8521 39.0495C13.7502 35.2235 10.6202 32.0617 6.81571 29.9211L6.81574 29.9211L6.80428 29.9148C5.40394 29.1476 4.12935 28.1705 3.02475 27.0176C2.39321 26.3191 1.96412 25.4615 1.78387 24.5372C1.60273 23.6083 1.67986 22.6474 2.0068 21.7591C2.33374 20.8709 2.89794 20.0892 3.63807 19.4994C4.37821 18.9096 5.26596 18.534 6.20478 18.4135L6.22528 18.4109L6.24567 18.4075C7.44505 18.2098 8.66861 18.2089 9.86812 18.4049C15.8257 19.5484 21.0089 18.8854 25.543 16.715C30.0648 14.5504 33.8556 10.9278 37.1128 6.29057L37.115 6.28742C38.7807 3.89917 40.1249 2.58489 41.3152 1.98535C42.4095 1.43415 43.4753 1.43677 44.8174 2.01364C46.1919 2.60444 46.9675 3.35969 47.392 4.4781C47.8484 5.68078 47.9523 7.4396 47.6106 10.1396L47.6104 10.1411C46.8862 15.9288 47.4839 21.1254 49.5967 25.6685C51.7117 30.2163 55.3019 34.016 60.4048 37.0765L60.4141 37.0821L60.4235 37.0875C62.5878 38.3308 63.7778 39.5504 64.3142 40.7192C64.8285 41.8399 64.8169 43.0802 64.2008 44.5794Z" fill="#F5050E" stroke="#215EE6" stroke-width="2.31037"/>
</svg>
