<svg width="66" height="67" fill="none" xmlns="http://www.w3.org/2000/svg"><path d="m64.2 44.58-.007.02-.008.02c-.495 1.346-1.278 2.243-2.324 2.794-1.07.563-2.52.82-4.43.668a74.197 74.197 0 0 0-8.103-.487h-.032a22.225 22.225 0 0 0-17.933 9.79c-.508.699-.987 1.424-1.45 2.123l-.347.525c-.582.875-1.152 1.703-1.781 2.468l-.032.04-.028.04a5.221 5.221 0 0 1-9.499-3.495l.005-.046.001-.045c.03-1.185.12-2.396.22-3.644l.027-.345c.09-1.128.182-2.286.231-3.44A23.405 23.405 0 0 0 6.816 29.921l-.012-.006a15.645 15.645 0 0 1-3.78-2.897 5.176 5.176 0 0 1 3.18-8.605l.021-.002.02-.004c1.2-.197 2.424-.198 3.623-.002 5.958 1.143 11.14.48 15.675-1.69 4.522-2.165 8.313-5.787 11.57-10.424l.002-.004c1.666-2.388 3.01-3.702 4.2-4.302 1.095-.55 2.16-.548 3.502.029 1.375.59 2.15 1.346 2.575 2.464.456 1.203.56 2.962.219 5.662v.001c-.725 5.788-.127 10.984 1.986 15.528 2.115 4.547 5.705 8.347 10.808 11.408l.01.005.008.005c2.165 1.244 3.355 2.463 3.891 3.632.515 1.12.503 2.361-.113 3.86Z" fill="#F5050E" stroke="#215EE6" stroke-width="2.31"/></svg>