<svg width="74" height="77" fill="none" xmlns="http://www.w3.org/2000/svg"><path d="M56.377 26.323c-.84 1.083-1.614 2.21-2.52 3.227a7.205 7.205 0 0 0-1.459 9.083c1.481 2.564.597 4.642 0 7.227a27.624 27.624 0 0 1-6.63 13.703c-2.01 2.21-3.403 4.42-6.475 4.95a5.723 5.723 0 0 0-2.917 1.392c-2.476 2.564-4.995 2.21-8.399 1.857-4.243-.486-9.105-.155-12.575 3.647A32.995 32.995 0 0 1 8.772 77c1.15-4.685 6.21-6.63 8-11.05l-9.835-4.42-3.513 1.989c-.266-.575-.597-.995-.509-1.15.95-1.502 1.945-2.961 3.094-4.663-2.762-2.387-4.773-4.84-3.978-8.575a7.095 7.095 0 0 0-.685-3.182c-.155-.509-.73-.907-.818-1.393-.22-1.237-.862-3.094-.31-3.668 3.537-3.47-.463-9.504 4.421-12.377.31-.177.707-.375.84-.685 2.564-5.459 7.625-7.735 12.663-10.056.332-.132.575-.618.862-.662 5.46-.553 11.05-2.21 16.266.707 5.216 2.917 5.393 3.138 9.791-1.15 2.962-2.873 5.99-5.702 8.995-8.53l.928.75a21.308 21.308 0 0 1-2.21 3.316c-1.989 2.21-4.199 4.11-6.21 6.255a6.099 6.099 0 0 0 2.829 10.033 4.994 4.994 0 0 0 3.05-.574 19.209 19.209 0 0 0 2.94-2.21l.994.618Zm-20.93-.552c-3.425-3.824-3.425-3.823-7.27-3.47a7.517 7.517 0 0 1-2.72 0c-4.729-1.48-8.309 1.724-11.38 3.868-4.996 3.514-6.808 9.57-7.89 15.47a8.088 8.088 0 0 0 .64 3.182c.31 1.216.685 2.431 1.083 3.625.398 1.193.597 3.072 1.525 3.846.928.773 2.608.331 3.956.42-.553 5.37-.553 5.37 8.708 8.707l13.746-13.26c.11 3.934-2.564 4.84-3.89 6.63s-3.337 3.735-5.724 6.365c2.343.486 3.868 1.304 4.973.928a23.45 23.45 0 0 0 8.31-4.022 23.847 23.847 0 0 0 7.647-16.841c0-.597-.553-1.215-1.105-2.343l-5.901 3.16a7.47 7.47 0 0 1 .464-2.099c1.459-2.21 4.287-4.42 4.177-6.63-.11-2.21-3.072-4.243-4.818-6.343-.199-.22-.663-.22-1.127-.353-4.62 2.21-6.873 7.713-11.691 9.857l-.862-.84 9.15-9.857ZM73.593.95 58.564 16.2C59.471 11.78 66.963 3.647 72.62 0l.973.95Z" fill="#FAE838"/><path d="m20.816 33.217-7.956 7.758c.818-4.42 1.635-5.327 6.962-8.664l.994.906Z" fill="#FAE838"/></svg>