<svg width="74" height="77" viewBox="0 0 74 77" fill="none" xmlns="http://www.w3.org/2000/svg">
<path d="M56.3766 26.3233C55.5368 27.4062 54.7632 28.5335 53.8571 29.5501C52.5932 30.6567 51.7556 32.17 51.4892 33.8286C51.2229 35.4872 51.5445 37.1868 52.3984 38.6334C53.8791 41.1971 52.9951 43.2746 52.3984 45.8604C51.5152 50.9586 49.2179 55.7062 45.7682 59.5626C43.7571 61.7727 42.3648 63.9827 39.2928 64.5132C38.2068 64.6873 37.1939 65.1707 36.3755 65.9055C33.9002 68.4692 31.3808 68.1155 27.9773 67.7619C23.734 67.2757 18.8718 67.6072 15.402 71.4085C13.4476 73.5559 11.2183 75.4361 8.77186 77C9.92109 72.3147 14.9821 70.3699 16.7723 65.9497L6.93747 61.5296L3.42356 63.5187C3.15835 62.9441 2.82688 62.5242 2.91529 62.3695C3.86561 60.8666 4.86006 59.408 6.00929 57.7063C3.24671 55.3194 1.23559 52.8662 2.03121 49.1312C2.05261 48.0316 1.81806 46.942 1.34609 45.9486C1.19139 45.4403 0.616786 45.0425 0.528383 44.5563C0.307378 43.3186 -0.333572 41.4624 0.218943 40.8877C3.75504 37.418 -0.24517 31.3843 4.63906 28.5112C4.94847 28.3344 5.34629 28.1356 5.47889 27.8262C8.04256 22.3674 13.1036 20.0909 18.1425 17.7703C18.474 17.6377 18.7171 17.1517 19.0044 17.1075C24.4633 16.555 30.0547 14.8973 35.2705 17.8146C40.4862 20.7319 40.663 20.9528 45.061 16.6653C48.0225 13.7922 51.0503 10.9634 54.056 8.13452L54.9843 8.88587C54.3528 10.0575 53.6128 11.1674 52.7742 12.201C50.7852 14.411 48.5751 16.3118 46.564 18.4556C45.8501 19.2221 45.3456 20.1594 45.0992 21.1774C44.8527 22.1954 44.8725 23.2597 45.1568 24.2678C45.441 25.2759 45.9801 26.1939 46.722 26.9332C47.464 27.6726 48.3837 28.2083 49.3928 28.4891C50.4446 28.6263 51.5128 28.4253 52.4426 27.9147C53.4909 27.2737 54.4752 26.5337 55.3821 25.7047L56.3766 26.3233ZM35.4473 25.7708C32.0217 21.9473 32.0217 21.9475 28.1762 22.3011C27.2777 22.4663 26.3564 22.4663 25.4578 22.3011C20.7283 20.8203 17.148 24.0249 14.0761 26.1687C9.08132 29.6827 7.26906 35.7382 6.18613 41.6391C6.18251 42.7323 6.40049 43.8148 6.827 44.8214C7.13641 46.037 7.51209 47.2525 7.90991 48.446C8.30772 49.6394 8.50663 51.5179 9.43485 52.2915C10.3631 53.065 12.0428 52.6231 13.3909 52.7115C12.8384 58.082 12.8384 58.0818 22.0986 61.419L35.8451 48.1587C35.9556 52.0926 33.2814 52.9987 31.9554 54.7888C30.6293 56.579 28.6182 58.5238 26.2314 61.1538C28.574 61.64 30.099 62.4579 31.204 62.0821C34.2131 61.3053 37.0378 59.9379 39.5139 58.0597C41.8457 55.9033 43.7233 53.303 45.0364 50.4111C46.3496 47.5191 47.0717 44.3939 47.1606 41.219C47.1606 40.6223 46.6081 40.0037 46.0555 38.8765L40.1547 42.0368C40.2074 41.3182 40.3637 40.6111 40.6189 39.9373C42.0775 37.7272 44.9063 35.5172 44.7958 33.3071C44.6853 31.0971 41.7238 29.0638 39.9779 26.9643C39.779 26.7433 39.3148 26.7432 38.8507 26.6106C34.2317 28.8206 31.9775 34.3239 27.1596 36.4676L26.2976 35.6278L35.4473 25.7708Z" fill="#FAE838"/>
<path d="M73.5928 0.950174L58.5644 16.1996C59.4705 11.7795 66.9626 3.6466 72.6203 0L73.5928 0.950174Z" fill="#FAE838"/>
<path d="M20.8161 33.2172L12.86 40.9745C13.6777 36.5544 14.4953 35.6485 19.8216 32.3113L20.8161 33.2172Z" fill="#FAE838"/>
</svg>
